/* XPM */
static char *_146c95fe09f4904c8dbb52c9bdd8250cmAo3r7t9p57JTjp[] = {
/* columns rows colors chars-per-pixel */
"32 32 8 1 ",
"  c None",
". c #3D9CEA",
"X c #3C9CEB",
"o c #3D9CEB",
"O c #3E9CEA",
"+ c #3E9CEB",
"@ c #C0C0C0",
"# c #C1C0C0",
/* pixels */
"                                ",
"                                ",
"               ++               ",
"              ++++              ",
"            +++   ++            ",
"          +++      +++          ",
"        +  +  @@    +  +        ",
"       +  +  #@#     +  +       ",
"      +  +  #@@       +  +      ",
"        +  #@#         +        ",
"     + +  ###           + +     ",
"     ++  #@@             ++     ",
"    ++  ##                ++    ",
"    +  ##                  +    ",
"   +  ##                   ++   ",
"  ++  #  ##@#@#@#@@#@@#     ++  ",
"  ++    @#@#@#@#@#@@#@@ #@  ++  ",
"   ++                  ##   +   ",
"    +                 @#   +    ",
"    ++               @@   ++    ",
"     ++             #@   ++     ",
"     + +           @#   + +     ",
"        +         ##   +        ",
"      +  +       #@   +  +      ",
"       +  +     @#   +  +       ",
"        +  +    @#  +  +        ",
"          +++      +++          ",
"            ++   +++            ",
"              ++++              ",
"               ++               ",
"                                ",
"                                "
};
