/* XPM */
static char *_b2922bdf2df45039f342a5db827be21vo65bXPe6ypGUCa7[] = {
/* columns rows colors chars-per-pixel */
"64 64 11 1 ",
"  c None",
". c #3D9BE9",
"X c #3D9BEA",
"o c #3D9CEA",
"O c #3E9CEA",
"+ c #3E9CEB",
"@ c #3E9DEB",
"# c #3D9DEC",
"$ c #3E9DEC",
"% c #C0C0C0",
"& c #C1C0C0",
/* pixels */
"                                                                ",
"                                                                ",
"                                                                ",
"                                                                ",
"                               ++                               ",
"                              ++#+                              ",
"                             ++  @+                             ",
"                             +++++++                            ",
"                         +++#@@#++ ++ +                         ",
"                      +@@+++        @+++++                      ",
"                    +@@+ ++    &     @+ +@++                    ",
"                  +@+   +@    %%      @+   +@+                  ",
"                 +@+   +@    &%%       @+   +@+                 ",
"                ++    +@    %%%%        @+    ++                ",
"               ++    +@    &%%%&         @+    ++               ",
"              ++    +@    %%%%%           @+    ++              ",
"             ++    +@    &%%%%             @+    ++             ",
"            ++    +@    %%%%&               @+    ++            ",
"           +@    +@    &%%%&                 @+    @+           ",
"           @+   +@    %%%%%                   @+   +@           ",
"          ++   +@    %%%%%                     @+   ++          ",
"          @   +@    &%%%&                       @+   @          ",
"         +@  +@    &%%%%                         @+  @+         ",
"         @+ +@    %%%%&                           @+ +@         ",
"         + ++    %%%&                              @+ +         ",
"        +.++    &%%%                                @+++        ",
"         ++    %%%%                                  +++        ",
"        ++    &%%&                                    +#        ",
"       ++    &%%%                                      #        ",
"      ++    %%%&                                       @++      ",
"     ++++  %%%%                           %%&%%        ++++     ",
"    +$ ++ &&%%   &&%&%&%&%&%&%&%%&%%&%%&%%%%%%&        ++ #+    ",
"    ++ +#       %%%%%%%%%%%%%%%%%%%%%%%%%%%%%%   %%%&  ++ #+    ",
"     +++@      &%%%&%%%&%%%&%%%&%%%&%%%%%&%%&   &%%%   ++@+     ",
"      ++@                                      %%%%     ++      ",
"        #                                     &%%&     ++       ",
"        #+                                   %%%%     ++        ",
"        @++                                 &%%&     @+         ",
"        ++++                               %%%&     @+++        ",
"         + +@                             &%%%     @+ +         ",
"         @+ +@                           %%%&     @+ +@         ",
"         +@  +@                         &%%%     @+  @+         ",
"          @   +@                       %%%%     @+   @          ",
"          ++   +@                     &%%&     @+   ++          ",
"           @+   +@                   &%%%     @+   +@           ",
"           +@    +@                 %%%&     @+    @+           ",
"            ++    +@               %%%%     @+    ++            ",
"             ++    +@             &%%%     @+    ++             ",
"              ++    +@           %%%&     @+    ++              ",
"               ++    +@         &%%&     @+    ++               ",
"                ++    +@        %%%     @+    ++                ",
"                 +@+   +@       %%&    @+   +@+                 ",
"                  +@+   +@      %&    ++   +@+                  ",
"                    +@@+ ++          ++ +@@+                    ",
"                      ++++++        +++@@+                      ",
"                         + +@ ++#@@##++                         ",
"                            +++++++                             ",
"                             ++  ++                             ",
"                              +$$+                              ",
"                               ++                               ",
"                                                                ",
"                                                                ",
"                                                                ",
"                                                                "
};
