/* XPM */
static char *b6771eae29894c36c285169d3b9b2a82NVMAwc9M6J5nBPpx[] = {
/* columns rows colors chars-per-pixel */
"128 128 12 1 ",
"  c None",
". c #3D9AE7",
"X c #3D9AE8",
"o c #3D9BE8",
"O c #3D9BE9",
"+ c #3D9BEA",
"@ c #3D9CEA",
"# c #3E9CEA",
"$ c #3E9CEB",
"% c #3E9DEB",
"& c #3E9DEC",
"* c #C0C0C0",
/* pixels */
"                                                                                                                                ",
"                                                                                                                                ",
"                                                                                                                                ",
"                                                                                                                                ",
"                                                                                                                                ",
"                                                                                                                                ",
"                                                                                                                                ",
"                                                               $O                                                               ",
"                                                              $$$o                                                              ",
"                                                             o$$%$$                                                             ",
"                                                            $$&$&&$$                                                            ",
"                                                           $&&&$$&$$$                                                           ",
"                                                          .&&&$  $%&&$                                                          ",
"                                                         $$$$$    $&&&o                                                         ",
"                                                                   $$&$$                                                        ",
"                                                        $$$$$$$&&$  $$$$O                                                       ",
"                                                    $$%$&&&&&%&&&&%  $%&&@  $                                                   ",
"                                                $$%&$&&$&&%$$$$&%$$$  $&&&$ $$@$                                                ",
"                                              $%$%$%&$$$$              $&&$$ $$$$$                                              ",
"                                           $$&%$&%$$                    @%%&. $$&&&$$                                           ",
"                                         $$&&&&$$   $$o        *         $%&$$ $$&&&$$$                                         ",
"                                       o$$%$$$   o$&$$        **          $%$$o   $$$&&$O                                       ",
"                                      $$$$$$    $&&&$        ***           $%&&$    $$&&&$                                      ",
"                                    $$$$$$     $$&$$        ****            $&&&$     $$&&$$                                    ",
"                                   $$&$$      $&$%$        *****             $%&$$      $$&&$                                   ",
"                                 o$&&$$      o$&%$        ******              $%$$$      O$&&$.                                 ",
"                                $$$$$       $$&&@        *******               $&&$o       $$$$O                                ",
"                               O&&&$       $%%%$        ********                $&$$$       $&&&$                               ",
"                              O&&%$       o$&&$        *********                 $%&&$       O$&&O                              ",
"                             O&&$        $&&%$        *********                   $$%$$        $&&O                             ",
"                            O&&$        $&&&$        *********                     $%&&@        $&&O                            ",
"                           O&&$        o$&$$        *********                       @&&&$        $&&O                           ",
"                          O$&$        $%&&$        *********                         $&&$o        $&&O                          ",
"                         .&&$        o$%%$        *********                           $%%$$        $&&.                         ",
"                         $&&O       $$&%$        *********                             $&&$$       O&&$                         ",
"                        $$$$       $&&&$        *********                               $&$$$       O&$$                        ",
"                       $$&$       $$$$$        *********                                 $%&&@       $$&$                       ",
"                       %&$       O&&$$        *********                                   $&&&$       $&%                       ",
"                      $%&$      O&&$@        *********                                     $&&$$      O$$$                      ",
"                     $&&$      $$&&$        *********                                       @%%&$      $$$$                     ",
"                     $$%      $&&%$        *********                                         $%&$$      $$$                     ",
"                    $&$$     o$&&$        *********                                           $$$$$     $$$$                    ",
"                    $&$     $$&&$        *********                                             $&&$o     $$$                    ",
"                   $$$$    $%%%$        *********                                               $&$$$    $&&$                   ",
"                   $%$    o$&&$        *********                                                 $%&&$    $$$                   ",
"                   &&$   $&&%$        *********                                                   $%%$$   $&&                   ",
"                  $&&   $&&&$        *********                                                     $%&&@   $&$                  ",
"                  %%$  o$&$$        *********                                                       @&&&$  $&%                  ",
"                 $$&$ $$&&$        ********                                                          $&&$o $$$$                 ",
"                 $$$ o$$%$        ********                                                            $$$$$ $$$                 ",
"                 $$ $&&&$        ********                                                              $&&$ $&$                 ",
"                $o .$&$$        ********                                                                $&$ $&&                 ",
"                  $&$&@        ********                                                                  $%$ &&$                ",
"                 o$&%@        ********                                                                    @$ $&$                ",
"                $$&&$        ********                                                                      $ $&$                ",
"               $%%%$        ********                                                                         $&&                ",
"              $%&%$        ********                                                                          $&&$               ",
"             o$%&$        ********                                                                            &&O $             ",
"            $$&%$        ********                                                                             $&$ $o            ",
"           O&&&$        ********                                                                              $&$ $$$           ",
"          $$$$$  $     ********                                                                               $&$ $&&$          ",
"         O&&$$  %$    ********      ************************************************************              $&$ O&&&o         ",
"        O&&$@  $%$   ********      ************************************************************               $$$  $%&$o        ",
"       O$&&$   &&&  ********      ************************************************************                &&&   $&$$$       ",
"       $&&&@   &&%               ************************************************************      ********   %&&   $$&$o       ",
"        @&&$$  $&$              ************************************************************      ********    $&$  $&&&$        ",
"         o$$$$ $&$             ************************************************************      ********     $%  $%&&$         ",
"          $&$$ $&$            ************************************************************      ********      $  $&&$o          ",
"           $$$ $&$                                                                             ********         $%%%$           ",
"            o$ $&%                                                                            ********         @&&$$            ",
"             O $&%                                                                           ********         $%&$o             ",
"               $&$$                                                                         ********         $$$&$              ",
"                &&$                                                                        ********         $$&$$               ",
"                %&$ $                                                                     ********         $&&&$                ",
"                $&$ $$                                                                   ********         $%&&$                 ",
"                $$& @$$                                                                 ********         $&&&.                  ",
"                 &$$ &&$                                                               ********         $%&&$ $o                ",
"                 %$$ $&$$                                                             ********         $&&$o $$                 ",
"                 $&$ o&&&$                                                           ********         $&&$o $$$                 ",
"                 $$$$ $&&%$                                                         ********         $%&&$ $$$@                 ",
"                  $&$  $$%&$                                                       ********         $&&$$  $$$                  ",
"                  $$&   o$&%$                                                     ********         @$&&o   &&$                  ",
"                   $&$   o&&&$                                                   ********         $%&&$   $$&                   ",
"                   $&%    $&&%$                                                 ********         $%$$$    $&$                   ",
"                   $&$$    $$$&$                                               ********         $&&&$    $$$$                   ",
"                    $$$     $%&&$                                             ********         @%&$$     $&$                    ",
"                    $$&$     $$%%$                                           ********         $%%$o     $&&$                    ",
"                     $&$      o$&&$                                         ********         $%%%$      $$$                     ",
"                     O$&$      $&&&@                                       ********         $$&$$      $&&$                     ",
"                      $&$O      @&&%$                                     ********         $&&&$      $$$$                      ",
"                       $&$       $$%%$                                   ********         $%&&$       $$$                       ",
"                       O&&$       $&&%$                                 ********         $&&$o       $%$$                       ",
"                        $&&O       $$%&$                               ********         $%%%$       $&&$                        ",
"                         $&&$       o$&&$                             ********         $&&$$       $$%$                         ",
"                         .&&$        $&&%$                           ********         $&&$o        %$$o                         ",
"                          O&&$        $&&%$                         ********         $%&&$        $&$$                          ",
"                           $$$$        $$%&$                       ********         $&&$$        $$&$                           ",
"                            $$&$        o$&%$                     ********         @$&&O        $&$$                            ",
"                             $&&$        o&&&$                   ********         $$&&O        $&$$                             ",
"                              $&$$$       $&&%$                 ********         $$$$$       $$$&$                              ",
"                               O$$%$       $$$&$                *******         $&&&O       $$$$$                               ",
"                                $$&&$       $%&&$               ******         $%&$$       $&&&$                                ",
"                                 o$%$$o      $$%%$              ******        $&%$o      O$&$$.                                 ",
"                                   $&&$$      o$&%$             *****        $$&%$      $&&&$                                   ",
"                                    $$$$$$     $&%%@            ****        $$&&$     $$&&$$                                    ",
"                                      $$$&$$    $$&&$           ***        $&&$o    $$%$$$                                      ",
"                                       $$%&&$$   $&&&$          **        $$&$$   $%%$&$O                                       ",
"                                         $$&&$$$$ @&&$$                  o$$   $$$$&&$$                                         ",
"                                           $$&&$$o .&&&$                    $$%%&$&$$                                           ",
"                                              $$&$$ $&&$$              $$$$&$&%$%$                                              ",
"                                                $$$o O$$$$  $$$&&$$$$$&&&&&$%%$$                                                ",
"                                                   $  $$&&$  %%&&$&&&&&&&%$$                                                    ",
"                                                       $&&&@  $&&$$$$$$$                                                        ",
"                                                        @&&%$                                                                   ",
"                                                         o$%$$    $$$$$                                                         ",
"                                                          $&&$$  $&$$o                                                          ",
"                                                           $$$$$$%%%$                                                           ",
"                                                            $$&&&&$$                                                            ",
"                                                             O&&&$o                                                             ",
"                                                              O$&$                                                              ",
"                                                               OO                                                               ",
"                                                                                                                                ",
"                                                                                                                                ",
"                                                                                                                                ",
"                                                                                                                                ",
"                                                                                                                                ",
"                                                                                                                                ",
"                                                                                                                                "
};
